<svg xmlns="http://www.w3.org/2000/svg" xmlns:xlink="http://www.w3.org/1999/xlink" width="175.7px" height="25.9px" viewBox="0 0 175.7 25.9" >
     <symbol id="panasonic-logo" width="175.7px" height="25.9px" viewBox="0 0 175.7 25.9">
        <g style="fill: #0066B1">
            <path class="st0" d="M42.1,7.4h6.5l0.3,2.1c0.5-1.7,3.8-2.9,5.8-2.9c4.6,0,6.5,2.9,6.5,7.9v10.8h-7.2v-9.6c0-1.9-0.4-3.4-2.3-3.4
                c-1.8,0-2.7,1.9-2.7,3.3v9.7h-6.9V7.4L42.1,7.4z"/>
            <path class="st0" d="M0,25.4V0.1h12.1c7.2,0,10.5,3.5,10.5,8.6c0,5.4-3,9.1-10.5,9.1H8v7.6H0L0,25.4z M11.2,11.6c1.9,0,4-0.4,4-2.6
                c0-2.3-2.2-2.8-4-2.8H8v5.4H11.2L11.2,11.6z"/>
            <path class="st0" d="M121.5,7.4h6.6l0.2,2.1c0.6-1.7,3.9-2.9,5.9-2.9c4.6,0,6.5,2.9,6.5,7.9v10.9h-7.2v-9.7c0-1.9-0.4-3.4-2.4-3.4
                c-1.7,0-2.6,1.9-2.6,3.3v9.8h-6.9V7.4L121.5,7.4z"/>
            <path class="st0" d="M88.4,18.9c0,0.7,0.4,1.8,0.8,2.1c0.5,0.4,1.1,0.7,1.9,0.7c1.3,0,2.3-0.4,2.3-1.6c0.1-3-10.9-0.4-10.9-7.5
                c0-5,3.9-6.1,7.9-6.1s9.5,0.8,9.3,6.2h-6.1c0-0.5-0.2-0.9-0.5-1.3c-0.4-0.5-0.9-0.7-1.9-0.8c-1.2-0.1-2.4,0.1-2.4,1.1
                c0.1,2.8,11.3,0.9,11.3,7.5c0,4.6-3.2,6.6-9.4,6.6c-3.9-0.1-8.9-2.1-8.9-7H88.4L88.4,18.9z"/>
            <path class="st0" d="M162.3,14.4c0-0.4,0-1-0.6-1.7c-0.3-0.4-0.9-1.1-1.9-1.1c-2.7,0-3.4,2.6-3.4,4.8c0,2.5,1.1,4.6,3.3,4.6
                c1.9,0,2.8-1.7,2.8-3.1h6.3c0.1,3.7-2.4,8.1-9.4,8.1c-5.6,0-9.6-3.9-9.6-9.6c0-6.9,5.1-9.6,9.6-9.6c6,0,9.4,3.6,9.4,7.7H162.3
                L162.3,14.4z"/>
            <path class="st0" d="M34.4,25.4l-0.7-1.5c-1.4,1.1-2.8,1.8-5.1,1.8c-2.2-0.1-6.6-0.4-6.6-5.1c0-7.9,11.7-4.3,11.7-8.1
                c0-1.3-1.4-1.2-2.2-1.2c-1.4,0-2.4,0.3-2.6,2.4h-6c0-3.7,1.1-6.9,9-6.9c7.6,0,8.4,4,8.4,7.9v8.1c0,1.1,0.1,1.6,0.8,2.4v0.1
                L34.4,25.4L34.4,25.4z M33.9,17.1c-2.4,1.1-5.5,1.1-5.6,2.9c0,1.1,0.6,1.7,2.1,1.7C32.7,21.7,34,19.3,33.9,17.1L33.9,17.1z
                M74.7,25.4L74,23.9c-1.4,1.1-2.9,1.8-5.1,1.8c-2.3-0.1-6.6-0.4-6.6-5.1c0-7.9,11.7-4.3,11.8-8.1c0-1.3-1.5-1.2-2.2-1.2
                c-1.5,0-2.4,0.3-2.6,2.4h-6c0-3.7,1.1-6.9,9-6.9c7.6,0,8.4,4,8.4,7.9v8.1c0,1.1,0.1,1.6,0.8,2.4v0.1L74.7,25.4L74.7,25.4z
                M74.2,17.1c-2.4,1.1-5.6,1.1-5.6,2.9c0,1.1,0.6,1.7,2.1,1.7C72.9,21.7,74.3,19.3,74.2,17.1L74.2,17.1z"/>
            <path class="st0" d="M148.6,25.4V7.4H142v17.9H148.6L148.6,25.4z M142,5.1h6.6V0H142V5.1L142,5.1z"/>
            <path class="st0" d="M110.8,6.8c5.9,0,9.6,4.1,9.6,9.6c0,5.5-3.6,9.6-9.6,9.6c-5.9,0-9.6-4.1-9.6-9.6
                C101.2,10.9,104.9,6.8,110.8,6.8L110.8,6.8z M107.7,16.4c0,2.2,0.7,4.9,3.1,5c2.4,0,3.1-2.8,3.1-5c0-2.1-0.6-4.9-3.1-4.9
                C108.4,11.4,107.7,14.2,107.7,16.4L107.7,16.4z"/>
            <path class="st0" d="M173,21.9c0.4,0,1.1,0.1,1.1-0.5c0-0.5-0.4-0.6-0.8-0.6h-0.9v1.1H173L173,21.9z M174.4,23.6H174l-0.9-1.4h-0.7
                v1.4H172v-3.1h1.3c0.6,0,1.1,0.2,1.1,0.9c0,0.6-0.4,0.8-0.9,0.8L174.4,23.6L174.4,23.6z M175.4,22.1c0-1.4-1.1-2.4-2.4-2.4
                c-1.4,0-2.4,1.1-2.4,2.4c0,1.3,1.1,2.4,2.4,2.4C174.4,24.5,175.4,23.4,175.4,22.1L175.4,22.1z M170.3,22.1c0-1.5,1.2-2.7,2.7-2.7
                c1.5,0,2.7,1.2,2.7,2.7c0,1.5-1.2,2.7-2.7,2.7C171.5,24.8,170.3,23.6,170.3,22.1L170.3,22.1z"/>
        </g>
</symbol>
</svg>
